<?xml version="1.0" encoding="iso-8859-1"?>
<!-- Uploaded to: SVG Repo, www.svgrepo.com, Generator: SVG Repo Mixer Tools -->
<svg version="1.1" id="Layer_1" xmlns="http://www.w3.org/2000/svg" xmlns:xlink="http://www.w3.org/1999/xlink" 
	 viewBox="0 0 512 512" xml:space="preserve">
<path style="fill:#FFFFFF;" d="M256,472c-119.296,0-216-96.704-216-216S136.704,40,256,40s216,96.704,216,216
	C471.864,375.24,375.24,471.864,256,472z"/>
<path d="M256,48c114.872,0,208,93.128,208,208s-93.128,208-208,208S48,370.872,48,256C48.128,141.176,141.176,48.128,256,48 M256,32
	C132.288,32,32,132.288,32,256s100.288,224,224,224s224-100.288,224-224S379.712,32,256,32z"/>
<g>
	<rect x="216" y="216" style="fill:#E21B1B;" width="80" height="80"/>
	<rect x="216" style="fill:#E21B1B;" width="80" height="80"/>
	<rect x="216" y="432" style="fill:#E21B1B;" width="80" height="80"/>
	<rect x="432" y="216" style="fill:#E21B1B;" width="80" height="80"/>
	<rect y="216" style="fill:#E21B1B;" width="80" height="80"/>
</g>
</svg>